<svg fill="none" height="1280" viewBox="0 0 1280 1280" width="1280" xmlns="http://www.w3.org/2000/svg"><path d="m654.145 473.525c-.898-38.255 21.06-73.135 55.938-88.861 47.743-21.528 104.098-.2 125.625 47.542l24.577 20.019 1.269-31.673c-27.953-61.994-101.131-89.688-163.125-61.734-45.285 20.419-73.795 65.705-72.629 115.355l1.163 52.157 11.654 25.846 16.424-38.506z" fill="#6fcf97"/><path d="m494.323 424.246c3.883 8.611 8.969 16.472 15.034 23.404-9.255 1.815-18.365 4.702-27.174 8.673-61.994 27.954-89.688 101.131-61.735 163.125l24.577 20.019 1.269-31.673c-21.527-47.743-.199-104.098 47.543-125.625 22.467-10.13 47.483-11.166 70.653-2.975l-6.845 18.086 68.341-9.999-44.597-52.741-6.864 18.138c-3.945-1.418-7.931-2.629-11.947-3.634-18.891-5.288-34.347-18.57-42.41-36.452-14.959-33.177-.138-72.338 33.039-87.298 33.176-14.959 72.338-.139 87.297 33.038l25.846-11.654c-21.386-47.428-77.369-68.615-124.797-47.23-47.428 21.386-68.616 77.37-47.23 124.798z" fill="#6fcf97"/><path d="m583.573 681.183c45.284-20.419 73.795-65.705 72.629-115.355l-1.163-52.157-28.078 12.66.896 40.145c.898 38.255-21.06 73.135-55.938 88.861-47.743 21.528-104.098.2-125.625-47.542l-25.846 11.654c27.953 61.994 101.131 89.688 163.125 61.734z" fill="#6fcf97"/><path d="m788.164 557.831c-22.467 10.131-47.483 11.167-70.653 2.976l6.845-18.087-68.341 10 44.597 52.74 6.864-18.137c3.945 1.417 7.931 2.628 11.947 3.633 18.892 5.288 34.347 18.57 42.41 36.452 14.958 33.178.138 72.339-33.039 87.298-33.177 14.96-72.338.139-87.297-33.038l-25.846 11.654c21.385 47.429 77.369 68.616 124.797 47.23 47.428-21.385 68.615-77.369 47.23-124.797-3.883-8.611-8.969-16.472-15.034-23.405 9.254-1.814 18.365-4.701 27.174-8.673 61.994-27.953 89.688-101.13 61.734-163.124l-25.846 11.654c21.528 47.742.2 104.097-47.542 125.624z" fill="#6fcf97"/><g fill="#828282"><path d="m399.32 964.008h-80.896l-20.992 52.992h-13.568l67.584-168.96h15.104l67.584 168.96h-13.568zm-4.608-11.776-29.44-73.728-6.144-17.92h-.256l-6.144 17.408-29.44 74.24z"/><path d="m502.762 1019.56c-12.971 0-24.235-2.56-33.792-7.68s-16.128-12.544-19.712-22.272l10.496-6.912c2.56 8.533 7.765 14.933 15.616 19.204 7.851 4.26 17.493 6.4 28.928 6.4 11.605 0 20.651-2.22 27.136-6.66 6.656-4.437 9.984-10.325 9.984-17.664 0-6.315-2.816-11.349-8.448-15.104s-15.531-6.912-29.696-9.472c-17.92-3.243-30.549-7.595-37.888-13.056s-11.008-13.227-11.008-23.296c0-6.656 2.048-12.8 6.144-18.432s9.899-10.069 17.408-13.312 16.043-4.864 25.6-4.864c13.483 0 24.235 2.56 32.256 7.68 8.192 5.12 13.824 12.971 16.896 23.552l-11.008 6.4c-4.779-17.579-17.493-26.368-38.144-26.368-6.827 0-13.056 1.109-18.688 3.328-5.461 2.219-9.813 5.205-13.056 8.96-3.072 3.584-4.608 7.509-4.608 11.776 0 6.997 2.901 12.459 8.704 16.384s16.043 7.168 30.72 9.728c17.408 2.901 29.696 7.083 36.864 12.544s10.752 13.141 10.752 23.04c0 10.923-4.693 19.716-14.08 26.366-9.216 6.49-21.675 9.73-37.376 9.73z"/><path d="m625.494 1040.55c-4.779 11.61-10.069 19.71-15.872 24.32-5.803 4.78-13.141 7.17-22.016 7.17-10.581 0-18.688-3.16-24.32-9.47l4.864-11.01c4.096 6.14 10.581 9.22 19.456 9.22 5.973 0 11.008-1.71 15.104-5.12 4.267-3.25 8.192-9.31 11.776-18.18l8.192-20.48-13.312-31.744-40.704-96.256h14.592l39.168 97.024 6.4 17.156 6.912-18.436 37.632-95.744h13.824z"/><path d="m774.938 886.44c14.677 0 26.453 4.096 35.328 12.288 9.045 8.192 13.568 19.968 13.568 35.328v82.944h-12.8v-78.848c0-13.653-3.328-23.808-9.984-30.464s-15.787-9.984-27.392-9.984c-8.192 0-15.787 1.877-22.784 5.632s-12.629 9.216-16.896 16.384c-4.096 7.168-6.144 15.531-6.144 25.088v72.192h-12.8v-128h11.52l.512 25.856c4.096-9.216 10.325-16.213 18.688-20.992 8.533-4.949 18.261-7.424 29.184-7.424z"/><path d="m978.626 889v181.76h-12.8v-80.896c-3.925 9.216-9.984 16.466-18.176 21.756s-17.835 7.94-28.928 7.94c-18.091 0-32.427-5.89-43.008-17.66-10.411-11.78-15.616-28.079-15.616-48.9s5.205-37.12 15.616-48.896c10.581-11.776 24.917-17.664 43.008-17.664 11.435 0 21.333 2.816 29.696 8.448 8.363 5.461 14.336 13.056 17.92 22.784l.768-28.672zm-58.368 119.3c13.312 0 23.979-4.44 32-13.316 8.192-9.045 12.715-21.248 13.568-36.608v-10.752c-.683-15.36-5.12-27.477-13.312-36.352-8.192-9.045-18.944-13.568-32.256-13.568-14.848 0-26.453 4.949-34.816 14.848-8.363 9.728-12.544 23.211-12.544 40.448s4.181 30.805 12.544 40.704c8.363 9.726 19.968 14.596 34.816 14.596z"/></g></svg>