<svg fill="none" height="1280" viewBox="0 0 1280 1280" width="1280" xmlns="http://www.w3.org/2000/svg"><g fill="#f2f2f2"><path d="m270.548 611.584c-.557-23.717 13.057-45.343 34.682-55.093 29.6-13.347 64.54-.124 77.887 29.476l15.238 12.412.787-19.637c-17.332-38.437-62.701-55.607-101.138-38.276-28.076 12.66-45.752 40.737-45.03 71.52l.722 32.338 7.225 16.024 10.183-23.874z"/><path d="m171.459 581.032c2.408 5.338 5.561 10.212 9.321 14.51-5.737 1.125-11.386 2.915-16.847 5.378-38.436 17.331-55.607 62.701-38.276 101.137l15.238 12.412.787-19.638c-13.347-29.6-.124-64.54 29.476-77.887 13.93-6.281 29.44-6.923 43.805-1.845l-4.244 11.214 42.371-6.2-27.65-32.699-4.255 11.245c-2.446-.878-4.918-1.629-7.408-2.252-11.712-3.279-21.295-11.514-26.294-22.601-9.274-20.569-.085-44.849 20.484-54.124 20.57-9.275 44.85-.086 54.125 20.483l16.024-7.225c-13.259-29.406-47.969-42.542-77.374-29.283-29.406 13.259-42.542 47.969-29.283 77.375z"/><path d="m226.795 740.333c28.076-12.66 45.752-40.737 45.03-71.521l-.722-32.337-17.407 7.85.555 24.89c.557 23.717-13.057 45.343-34.682 55.093-29.6 13.347-64.54.124-77.887-29.476l-16.024 7.225c17.331 38.437 62.7 55.607 101.137 38.276z"/><path d="m353.641 663.854c-13.93 6.281-29.439 6.924-43.805 1.845l4.244-11.213-42.371 6.199 27.65 32.699 4.256-11.245c2.445.879 4.917 1.63 7.407 2.253 11.713 3.278 21.295 11.513 26.294 22.6 9.274 20.57.085 44.85-20.484 54.125-20.57 9.275-44.85.086-54.124-20.484l-16.025 7.226c13.259 29.405 47.969 42.541 77.374 29.282 29.406-13.259 42.542-47.969 29.283-77.374-2.408-5.339-5.561-10.213-9.321-14.511 5.737-1.125 11.386-2.915 16.847-5.377 38.437-17.331 55.607-62.701 38.276-101.137l-16.025 7.225c13.347 29.601.124 64.541-29.476 77.887z"/><path d="m581.32 675.008h-80.896l-20.992 52.992h-13.568l67.584-168.96h15.104l67.584 168.96h-13.568zm-4.608-11.776-29.44-73.728-6.144-17.92h-.256l-6.144 17.408-29.44 74.24z"/><path d="m684.762 730.56c-12.971 0-24.235-2.56-33.792-7.68s-16.128-12.544-19.712-22.272l10.496-6.912c2.56 8.533 7.765 14.933 15.616 19.2 7.851 4.266 17.493 6.4 28.928 6.4 11.605 0 20.651-2.219 27.136-6.656 6.656-4.438 9.984-10.326 9.984-17.664 0-6.315-2.816-11.35-8.448-15.104-5.632-3.755-15.531-6.912-29.696-9.472-17.92-3.243-30.549-7.595-37.888-13.056-7.339-5.462-11.008-13.227-11.008-23.296 0-6.656 2.048-12.8 6.144-18.432s9.899-10.07 17.408-13.312c7.509-3.243 16.043-4.864 25.6-4.864 13.483 0 24.235 2.56 32.256 7.68 8.192 5.12 13.824 12.97 16.896 23.552l-11.008 6.4c-4.779-17.579-17.493-26.368-38.144-26.368-6.827 0-13.056 1.109-18.688 3.328-5.461 2.218-9.813 5.205-13.056 8.96-3.072 3.584-4.608 7.509-4.608 11.776 0 6.997 2.901 12.458 8.704 16.384 5.803 3.925 16.043 7.168 30.72 9.728 17.408 2.901 29.696 7.082 36.864 12.544 7.168 5.461 10.752 13.141 10.752 23.04 0 10.922-4.693 19.712-14.08 26.368-9.216 6.485-21.675 9.728-37.376 9.728z"/><path d="m807.494 751.552c-4.779 11.605-10.069 19.712-15.872 24.32-5.803 4.778-13.141 7.168-22.016 7.168-10.581 0-18.688-3.158-24.32-9.472l4.864-11.008c4.096 6.144 10.581 9.216 19.456 9.216 5.973 0 11.008-1.707 15.104-5.12 4.267-3.243 8.192-9.302 11.776-18.176l8.192-20.48-13.312-31.744-40.704-96.256h14.592l39.168 97.024 6.4 17.152 6.912-18.432 37.632-95.744h13.824z"/><path d="m956.938 597.44c14.677 0 26.453 4.096 35.328 12.288 9.044 8.192 13.564 19.968 13.564 35.328v82.944h-12.796v-78.848c0-13.654-3.328-23.808-9.984-30.464s-15.787-9.984-27.392-9.984c-8.192 0-15.787 1.877-22.784 5.632-6.997 3.754-12.629 9.216-16.896 16.384-4.096 7.168-6.144 15.53-6.144 25.088v72.192h-12.8v-128h11.52l.512 25.856c4.096-9.216 10.325-16.214 18.688-20.992 8.533-4.95 18.261-7.424 29.184-7.424z"/><path d="m1160.63 600v181.76h-12.8v-80.896c-3.93 9.216-9.99 16.469-18.18 21.76-8.19 5.29-17.83 7.936-28.93 7.936-18.09 0-32.42-5.888-43.01-17.664-10.41-11.776-15.61-28.075-15.61-48.896 0-20.822 5.2-37.12 15.61-48.896 10.59-11.776 24.92-17.664 43.01-17.664 11.44 0 21.34 2.816 29.7 8.448 8.36 5.461 14.33 13.056 17.92 22.784l.77-28.672zm-58.37 119.296c13.31 0 23.98-4.438 32-13.312 8.19-9.046 12.71-21.248 13.57-36.608v-10.752c-.69-15.36-5.12-27.478-13.32-36.352-8.19-9.046-18.94-13.568-32.25-13.568-14.85 0-26.46 4.949-34.82 14.848-8.36 9.728-12.54 23.21-12.54 40.448 0 17.237 4.18 30.805 12.54 40.704 8.36 9.728 19.97 14.592 34.82 14.592z"/></g></svg>