<svg fill="none" height="1800" viewBox="0 0 1800 1800" width="1800" xmlns="http://www.w3.org/2000/svg"><g fill="#828282"><path d="m274.548 871.584c-.556-23.718 13.058-45.343 34.682-55.094 29.6-13.347 64.54-.124 77.887 29.477l15.238 12.411.787-19.637c-17.331-38.436-62.701-55.606-101.137-38.275-28.077 12.659-45.753 40.737-45.031 71.52l.722 32.337 7.225 16.025 10.183-23.874z"/><path d="m175.46 841.031c2.407 5.339 5.56 10.213 9.32 14.511-5.737 1.125-11.386 2.915-16.847 5.377-38.436 17.331-55.607 62.701-38.276 101.138l15.238 12.411.787-19.637c-13.347-29.6-.124-64.54 29.476-77.887 13.93-6.281 29.44-6.923 43.805-1.845l-4.244 11.214 42.371-6.2-27.65-32.699-4.255 11.245c-2.446-.879-4.917-1.629-7.408-2.252-11.712-3.279-21.294-11.514-26.294-22.601-9.274-20.57-.085-44.849 20.484-54.124 20.57-9.275 44.85-.086 54.125 20.483l16.024-7.225c-13.259-29.406-47.969-42.542-77.374-29.283s-42.541 47.969-29.282 77.374z"/><path d="m230.795 1000.33c28.076-12.657 45.753-40.734 45.03-71.518l-.721-32.337-17.408 7.85.555 24.89c.557 23.717-13.057 45.343-34.682 55.093-29.6 13.347-64.54.124-77.887-29.476l-16.024 7.225c17.331 38.433 62.701 55.603 101.137 38.273z"/><path d="m357.641 923.855c-13.929 6.281-29.439 6.923-43.804 1.845l4.243-11.214-42.371 6.2 27.65 32.699 4.256-11.245c2.446.878 4.917 1.629 7.407 2.252 11.713 3.279 21.295 11.514 26.294 22.601 9.274 20.569.086 44.847-20.484 54.127-20.569 9.27-44.849.08-54.124-20.49l-16.025 7.23c13.259 29.4 47.969 42.54 77.375 29.28 29.405-13.26 42.541-47.967 29.282-77.373-2.407-5.338-5.561-10.212-9.321-14.51 5.738-1.125 11.386-2.915 16.848-5.378 38.436-17.331 55.606-62.701 38.275-101.137l-16.024 7.226c13.346 29.6.123 64.54-29.477 77.887z"/><path d="m585.32 935.008h-80.896l-20.992 52.992h-13.568l67.584-168.96h15.104l67.584 168.96h-13.568zm-4.608-11.776-29.44-73.728-6.144-17.92h-.256l-6.144 17.408-29.44 74.24z"/><path d="m688.762 990.56c-12.971 0-24.235-2.56-33.792-7.68s-16.128-12.544-19.712-22.272l10.496-6.912c2.56 8.533 7.765 14.933 15.616 19.2s17.493 6.4 28.928 6.4c11.605 0 20.651-2.219 27.136-6.656 6.656-4.437 9.984-10.325 9.984-17.664 0-6.315-2.816-11.349-8.448-15.104s-15.531-6.912-29.696-9.472c-17.92-3.243-30.549-7.595-37.888-13.056s-11.008-13.227-11.008-23.296c0-6.656 2.048-12.8 6.144-18.432s9.899-10.069 17.408-13.312 16.043-4.864 25.6-4.864c13.483 0 24.235 2.56 32.256 7.68 8.192 5.12 13.824 12.971 16.896 23.552l-11.008 6.4c-4.779-17.579-17.493-26.368-38.144-26.368-6.827 0-13.056 1.109-18.688 3.328-5.461 2.219-9.813 5.205-13.056 8.96-3.072 3.584-4.608 7.509-4.608 11.776 0 6.997 2.901 12.459 8.704 16.384s16.043 7.168 30.72 9.728c17.408 2.901 29.696 7.083 36.864 12.544s10.752 13.141 10.752 23.04c0 10.923-4.693 19.712-14.08 26.368-9.216 6.485-21.675 9.728-37.376 9.728z"/><path d="m811.494 1011.55c-4.779 11.61-10.069 19.71-15.872 24.32-5.803 4.78-13.141 7.17-22.016 7.17-10.581 0-18.688-3.16-24.32-9.47l4.864-11.01c4.096 6.14 10.581 9.22 19.456 9.22 5.973 0 11.008-1.71 15.104-5.12 4.267-3.25 8.192-9.31 11.776-18.18l8.192-20.48-13.312-31.744-40.704-96.256h14.592l39.168 97.024 6.4 17.152 6.912-18.432 37.632-95.744h13.824z"/><path d="m960.938 857.44c14.677 0 26.453 4.096 35.328 12.288 9.044 8.192 13.564 19.968 13.564 35.328v82.944h-12.796v-78.848c0-13.653-3.328-23.808-9.984-30.464s-15.787-9.984-27.392-9.984c-8.192 0-15.787 1.877-22.784 5.632s-12.629 9.216-16.896 16.384c-4.096 7.168-6.144 15.531-6.144 25.088v72.192h-12.8v-128h11.52l.512 25.856c4.096-9.216 10.325-16.213 18.688-20.992 8.533-4.949 18.261-7.424 29.184-7.424z"/><path d="m1164.63 860v181.76h-12.8v-80.896c-3.93 9.216-9.99 16.469-18.18 21.76s-17.83 7.936-28.93 7.936c-18.09 0-32.42-5.888-43.01-17.664-10.41-11.776-15.61-28.075-15.61-48.896s5.2-37.12 15.61-48.896c10.59-11.776 24.92-17.664 43.01-17.664 11.44 0 21.34 2.816 29.7 8.448 8.36 5.461 14.33 13.056 17.92 22.784l.77-28.672zm-58.37 119.296c13.31 0 23.98-4.437 32-13.312 8.19-9.045 12.71-21.248 13.57-36.608v-10.752c-.69-15.36-5.12-27.477-13.32-36.352-8.19-9.045-18.94-13.568-32.25-13.568-14.85 0-26.46 4.949-34.82 14.848-8.36 9.728-12.54 23.211-12.54 40.448s4.18 30.805 12.54 40.704c8.36 9.728 19.97 14.592 34.82 14.592z"/><path d="m1366.19 856.928c14.5 0 26.11 4.096 34.81 12.288 8.71 8.192 13.06 19.712 13.06 34.56v83.712h-7.17v-82.944c0-13.141-3.75-23.296-11.26-30.464s-17.67-10.752-30.47-10.752c-9.21 0-17.66 2.219-25.34 6.656-7.51 4.267-13.48 10.155-17.92 17.664-4.27 7.339-6.4 15.36-6.4 24.064v76.288h-7.17v-82.944c0-13.141-3.75-23.296-11.26-30.464-7.51-7.339-17.67-11.008-30.47-11.008-9.04 0-17.4 2.219-25.08 6.656-7.51 4.267-13.49 10.155-17.92 17.664-4.44 7.339-6.66 15.531-6.66 24.576v75.52h-7.17v-128h6.66l.25 30.464c3.59-10.069 9.99-18.091 19.2-24.064 9.22-5.973 19.8-8.96 31.75-8.96 12.29 0 22.53 2.987 30.72 8.96 8.36 5.973 13.65 14.507 15.87 25.6 3.07-10.411 9.39-18.859 18.94-25.344 9.56-6.485 20.57-9.728 33.03-9.728z"/><path d="m1508.48 857.44c18.61 0 33.2 5.888 43.78 17.664 10.75 11.776 16.13 28.075 16.13 48.896s-5.38 37.12-16.13 48.896c-10.58 11.776-25.17 17.664-43.78 17.664-18.77 0-33.53-5.888-44.28-17.664-10.76-11.947-16.13-28.245-16.13-48.896s5.37-36.864 16.13-48.64c10.75-11.947 25.51-17.92 44.28-17.92zm0 6.144c-16.55 0-29.61 5.376-39.16 16.128-9.39 10.752-14.08 25.515-14.08 44.288s4.69 33.536 14.08 44.288c9.55 10.752 22.61 16.128 39.16 16.128 16.39 0 29.27-5.376 38.66-16.128s14.08-25.515 14.08-44.288-4.69-33.536-14.08-44.288-22.27-16.128-38.66-16.128z"/><path d="m1662.38 857.44c14.85 0 26.54 4.096 35.08 12.288 8.7 8.192 13.05 19.712 13.05 34.56v83.712h-7.17v-81.92c0-13.653-3.75-24.149-11.26-31.488s-17.75-11.008-30.72-11.008c-9.22 0-17.66 2.219-25.34 6.656-7.51 4.267-13.49 10.155-17.92 17.664-4.44 7.339-6.66 15.616-6.66 24.832v75.264h-7.17v-128h6.66v30.72c3.58-10.24 9.98-18.347 19.2-24.32 9.21-5.973 19.97-8.96 32.25-8.96z"/></g></svg>