<svg fill="none" height="1280" viewBox="0 0 1280 1280" width="1280" xmlns="http://www.w3.org/2000/svg"><g fill="#f2f2f2"><path d="m659.715 570.286c-1.348-57.381 31.59-109.701 83.907-133.291 71.614-32.291 156.146-.3 188.437 71.314l36.866 30.028 1.903-47.509c-41.93-92.991-151.696-134.532-244.687-92.602-67.927 30.628-110.692 98.558-108.944 173.033l1.745 78.236 17.481 38.768 24.635-57.759z"/><path d="m419.984 496.368c5.824 12.917 13.453 24.709 22.55 35.107-13.881 2.722-27.548 7.052-40.76 13.01-92.991 41.93-134.532 151.696-92.602 244.687l36.865 30.028 1.904-47.509c-32.291-71.614-.3-156.146 71.314-188.437 33.7-15.196 71.224-16.75 105.979-4.463l-10.267 27.129 102.511-14.999-66.895-79.111-10.297 27.206c-5.917-2.126-11.896-3.942-17.92-5.45-28.337-7.933-51.52-27.855-63.615-54.678-22.438-49.766-.207-108.507 49.558-130.947 49.765-22.439 108.507-.208 130.946 49.557l38.769-17.481c-32.078-71.142-116.054-102.923-187.196-70.845-71.142 32.079-102.923 116.054-70.844 187.196z"/><path d="m553.859 881.775c67.927-30.629 110.692-98.558 108.944-173.034l-1.745-78.235-42.116 18.99 1.343 60.218c1.348 57.382-31.589 109.702-83.907 133.292-71.614 32.291-156.146.299-188.437-71.314l-38.769 17.481c41.93 92.991 151.696 134.532 244.687 92.602z"/><path d="m860.745 696.746c-33.7 15.196-71.224 16.75-105.978 4.463l10.267-27.129-102.511 14.999 66.895 79.111 10.296-27.206c5.918 2.126 11.896 3.942 17.921 5.45 28.337 7.932 51.52 27.855 63.614 54.678 22.438 49.766.207 108.507-49.558 130.947-49.765 22.439-108.507.208-130.946-49.557l-38.769 17.481c32.079 71.142 116.054 102.927 187.196 70.844 71.143-32.078 102.923-116.053 70.845-187.196-5.824-12.916-13.453-24.708-22.551-35.106 13.882-2.722 27.548-7.052 40.761-13.01 92.991-41.93 134.533-151.696 92.602-244.687l-38.769 17.481c32.291 71.614.299 156.146-71.315 188.437z"/></g></svg>