<svg fill="none" height="1280" viewBox="0 0 1280 1280" width="1280" xmlns="http://www.w3.org/2000/svg"><g fill="#2f80ed"><path d="m659.714 570.286c-1.347-57.382 31.59-109.702 83.908-133.292 71.614-32.291 156.146-.3 188.437 71.314l36.865 30.029 1.904-47.51c-41.93-92.991-151.696-134.532-244.687-92.602-67.927 30.629-110.692 98.558-108.944 173.033l1.745 78.236 17.481 38.769 24.635-57.759z"/><path d="m419.983 496.368c5.824 12.916 13.453 24.708 22.551 35.107-13.882 2.721-27.548 7.051-40.76 13.009-92.991 41.93-134.533 151.696-92.603 244.687l36.866 30.028 1.903-47.509c-32.291-71.614-.299-156.146 71.315-188.437 33.7-15.196 71.224-16.75 105.978-4.463l-10.267 27.129 102.511-14.999-66.895-79.111-10.296 27.207c-5.918-2.126-11.896-3.943-17.921-5.45-28.336-7.933-51.52-27.856-63.614-54.679-22.438-49.765-.207-108.507 49.558-130.946s108.507-.209 130.946 49.556l38.769-17.481c-32.079-71.142-116.054-102.922-187.196-70.844s-102.923 116.054-70.845 187.196z"/><path d="m553.859 881.774c67.927-30.628 110.692-98.557 108.944-173.033l-1.745-78.235-42.116 18.99 1.343 60.218c1.348 57.381-31.59 109.701-83.907 133.292-71.614 32.29-156.146.299-188.437-71.315l-38.769 17.481c41.93 92.991 151.696 134.532 244.687 92.602z"/><path d="m860.745 696.746c-33.7 15.195-71.224 16.75-105.979 4.463l10.268-27.13-102.511 14.999 66.895 79.111 10.296-27.206c5.917 2.126 11.896 3.943 17.92 5.45 28.338 7.932 51.521 27.855 63.615 54.678 22.438 49.766.207 108.508-49.558 130.947s-108.507.208-130.946-49.557l-38.769 17.481c32.079 71.142 116.054 102.928 187.196 70.845 71.142-32.079 102.923-116.054 70.845-187.196-5.824-12.917-13.454-24.708-22.551-35.107 13.882-2.722 27.548-7.052 40.76-13.009 92.991-41.93 134.534-151.696 92.602-244.687l-38.768 17.481c32.291 71.613.299 156.146-71.315 188.437z"/></g></svg>