<svg fill="none" height="1280" viewBox="0 0 1280 1280" width="1280" xmlns="http://www.w3.org/2000/svg"><g fill="#6fcf97"><path d="m659.718 570.287c-1.348-57.382 31.59-109.702 83.907-133.292 71.614-32.291 156.146-.299 188.437 71.314l36.866 30.029 1.903-47.51c-41.93-92.991-151.696-134.532-244.687-92.602-67.927 30.629-110.692 98.558-108.944 173.034l1.745 78.235 17.481 38.769 24.635-57.759z"/><path d="m419.985 496.369c5.824 12.916 13.453 24.708 22.55 35.106-13.881 2.722-27.547 7.052-40.76 13.01-92.991 41.93-134.532 151.696-92.602 244.687l36.866 30.028 1.903-47.509c-32.291-71.614-.3-156.146 71.314-188.437 33.701-15.196 71.224-16.75 105.979-4.463l-10.267 27.129 102.511-14.999-66.895-79.111-10.296 27.207c-5.918-2.126-11.897-3.943-17.921-5.45-28.336-7.933-51.52-27.856-63.615-54.679-22.438-49.765-.207-108.507 49.558-130.946 49.765-22.44 108.507-.209 130.946 49.556l38.769-17.481c-32.078-71.142-116.054-102.922-187.196-70.844s-102.923 116.054-70.844 187.196z"/><path d="m553.859 881.776c67.927-30.629 110.692-98.558 108.944-173.034l-1.746-78.235-42.115 18.99 1.343 60.218c1.348 57.381-31.59 109.702-83.907 133.292-71.614 32.291-156.146.299-188.437-71.314l-38.769 17.481c41.93 92.991 151.696 134.532 244.687 92.602z"/><path d="m860.745 696.747c-33.701 15.196-71.224 16.75-105.979 4.463l10.267-27.129-102.511 14.999 66.895 79.11 10.296-27.206c5.918 2.126 11.897 3.943 17.921 5.45 28.338 7.933 51.52 27.856 63.615 54.678 22.438 49.766.207 108.508-49.558 130.947s-108.507.208-130.946-49.557l-38.769 17.481c32.078 71.143 116.054 102.927 187.196 70.845 71.142-32.078 102.922-116.054 70.844-187.196-5.824-12.916-13.453-24.708-22.55-35.107 13.881-2.721 27.547-7.052 40.76-13.009 92.991-41.93 134.534-151.696 92.602-244.687l-38.769 17.481c32.291 71.614.3 156.146-71.314 188.437z"/></g></svg>